HIERARCHY
ROOT Hips
{
	OFFSET 0.000000 0.000000 0.000000
	CHANNELS 6 Xposition Yposition Zposition Zrotation Yrotation Xrotation 
	JOINT LeftUpLeg_virtual
	{
		OFFSET 0.000000 0.000000 0.000000
		CHANNELS 3 Zrotation Yrotation Xrotation
		JOINT LeftUpLeg
		{
			OFFSET 8.479694 -4.795517 -0.379053
			CHANNELS 3 Zrotation Yrotation Xrotation
			JOINT LeftLeg
			{
				OFFSET 0.485052 -32.551468 0.112863
				CHANNELS 3 Zrotation Yrotation Xrotation
				JOINT LeftFoot
				{
					OFFSET 0.438033 -32.635670 -3.012641
					CHANNELS 3 Zrotation Yrotation Xrotation
					JOINT LeftToeBase
					{
						OFFSET 0.970169 -13.225353 11.864223
						CHANNELS 3 Zrotation Yrotation Xrotation
						End Site
						{
							OFFSET 0.000000 0.000000 0.000000
						}
					}
				}
			}
		}
	}
	JOINT RightUpLeg_virtual
	{
		OFFSET 0.000000 0.000000 0.000000
		CHANNELS 3 Zrotation Yrotation Xrotation
		JOINT RightUpLeg
		{
			OFFSET -8.479694 -4.795517 -0.379053
			CHANNELS 3 Zrotation Yrotation Xrotation
			JOINT RightLeg
			{
				OFFSET -0.484100 -32.551483 0.112903
				CHANNELS 3 Zrotation Yrotation Xrotation
				JOINT RightFoot
				{
					OFFSET -0.438985 -32.635651 -3.012681
					CHANNELS 3 Zrotation Yrotation Xrotation
					JOINT RightToeBase
					{
						OFFSET -0.970169 -13.225354 11.864223
						CHANNELS 3 Zrotation Yrotation Xrotation
						End Site
						{
							OFFSET 0.000000 0.000000 0.000000
						}
					}
				}
			}
		}
	}
	JOINT Spine_virtual
	{
		OFFSET 0.000000 0.000000 0.000000
		CHANNELS 3 Zrotation Yrotation Xrotation
		JOINT Spine
		{
			OFFSET 0.000000 7.722015 1.166203
			CHANNELS 3 Zrotation Yrotation Xrotation
			JOINT Spine1
			{
				OFFSET 0.000000 12.024086 0.248766
				CHANNELS 3 Zrotation Yrotation Xrotation
				JOINT Spine2
				{
					OFFSET -0.000000 11.503036 -0.491240
					CHANNELS 3 Zrotation Yrotation Xrotation
					JOINT Neck_virtual
					{
						OFFSET 0.000000 0.000000 0.000000
						CHANNELS 3 Zrotation Yrotation Xrotation
						JOINT Neck
						{
							OFFSET 0.000000 18.430687 -3.123054
							CHANNELS 3 Zrotation Yrotation Xrotation
							JOINT Head
							{
								OFFSET -0.000000 9.051071 1.034021
								CHANNELS 3 Zrotation Yrotation Xrotation
								End Site
								{
									OFFSET 0.000000 0.000000 0.000000
								}
							}
						}
					}
					JOINT LeftShoulder_virtual
					{
						OFFSET 0.000000 0.000000 0.000000
						CHANNELS 3 Zrotation Yrotation Xrotation
						JOINT LeftShoulder
						{
							OFFSET 6.197824 13.665230 -4.064723
							CHANNELS 3 Zrotation Yrotation Xrotation
							JOINT LeftArm
							{
								OFFSET 7.778132 -0.187073 -1.709282
								CHANNELS 3 Zrotation Yrotation Xrotation
								JOINT LeftForeArm
								{
									OFFSET 21.954697 0.000000 -2.041093
									CHANNELS 3 Zrotation Yrotation Xrotation
									JOINT LeftHand
									{
										OFFSET 22.992908 0.000000 -0.870901
										CHANNELS 3 Zrotation Yrotation Xrotation
										End Site
										{
											OFFSET 0.000000 0.000000 0.000000
										}
									}
								}
							}
						}
					}
					JOINT RightShoulder_virtual
					{
						OFFSET 0.000000 0.000000 0.000000
						CHANNELS 3 Zrotation Yrotation Xrotation
						JOINT RightShoulder
						{
							OFFSET -6.197824 13.665230 -4.064723
							CHANNELS 3 Zrotation Yrotation Xrotation
							JOINT RightArm
							{
								OFFSET -7.778132 -0.187073 -1.709282
								CHANNELS 3 Zrotation Yrotation Xrotation
								JOINT RightForeArm
								{
									OFFSET -21.954697 0.000000 -2.041093
									CHANNELS 3 Zrotation Yrotation Xrotation
									JOINT RightHand
									{
										OFFSET -22.992908 0.000000 -0.870901
										CHANNELS 3 Zrotation Yrotation Xrotation
										End Site
										{
											OFFSET 0.000000 0.000000 0.000000
										}
									}
								}
							}
						}
					}
				}
			}
		}
	}
}
MOTION
Frames: 9
Frame Time: 0.033333
-12.788063 81.190063 50.902058 -179.969734 -1.017694 -179.890749 -3.950520 -1.617064 9.498943 -0.560276 10.770835 -25.766704 9.540078 7.778144 28.025245 -1.437600 -9.196796 -9.844436 0.000000 0.000000 0.000000 -0.147911 -1.865279 9.473413 1.094067 4.640615 -24.769872 0.485629 5.613132 32.218853 6.581450 6.104904 -11.521143 0.000000 0.000000 0.000000 1.762856 0.589365 -2.980892 -0.647331 -0.189752 -0.150867 -1.056380 -1.469056 9.270652 -0.020899 -0.048765 0.015710 -1.507292 -0.046772 9.748869 -0.857240 -3.327249 -11.960628 0.000000 0.000000 0.000000 0.209076 0.411071 7.373550 -6.447602 -4.564822 4.047346 -65.363066 -1.094075 13.994303 4.296866 -30.918200 8.132067 0.000000 0.000000 0.000000 -3.954936 1.995206 6.632314 25.733445 -0.531179 6.373507 53.613058 4.642666 21.110933 -4.180141 27.582882 -5.430932 0.000000 0.000000 0.000000 
-12.725580 81.182518 50.888943 -179.845834 -1.218208 -179.782313 -3.977413 -1.454272 9.272147 -0.680482 11.182358 -25.905422 9.720993 8.223909 28.520585 -0.951788 -8.712349 -10.755639 0.000000 0.000000 0.000000 -0.032159 -2.034797 9.557632 0.968174 4.739163 -24.494197 0.940537 5.758109 32.507835 6.847290 6.431930 -11.534041 0.000000 0.000000 0.000000 1.893500 0.491070 -3.145739 -0.512593 -0.190450 -0.262087 -1.019291 -1.535263 9.259885 -0.028456 -0.117839 0.022469 -1.455394 -0.103090 9.758613 -0.870330 -3.351433 -11.968951 0.000000 0.000000 0.000000 0.269326 0.441439 7.423350 -6.489171 -4.391023 4.110066 -65.422530 -0.615864 14.068048 4.374949 -30.583538 8.052941 0.000000 0.000000 0.000000 -3.907728 2.091057 6.636186 25.878402 -0.587227 6.362474 53.596583 4.238903 20.889449 -4.197304 27.454792 -5.453493 0.000000 0.000000 0.000000 
-12.630957 81.150696 50.865555 -179.908590 -1.115058 -179.861899 -3.984169 -1.520631 9.351413 -0.680889 11.002992 -25.964274 9.810740 8.075701 28.702190 -0.868261 -8.610899 -10.777320 0.000000 0.000000 0.000000 -0.138907 -2.166466 9.559524 1.131304 4.674199 -24.482395 0.939300 5.874797 32.571745 6.944945 6.640566 -11.769834 0.000000 0.000000 0.000000 1.856987 0.511724 -3.218621 -0.452075 -0.119335 -0.323571 -0.880003 -1.482395 9.289051 0.003012 -0.023871 -0.004853 -1.389213 -0.105391 9.790876 -0.809558 -3.551088 -11.992359 0.000000 0.000000 0.000000 0.293652 0.396825 7.486038 -6.541153 -4.186366 4.111166 -65.446272 0.143989 13.963498 4.270300 -30.436795 8.160731 0.000000 0.000000 0.000000 -3.894317 2.005212 6.652192 25.838452 -0.670117 6.361531 53.742210 3.597803 20.687702 -4.141062 27.352331 -5.510556 0.000000 0.000000 0.000000 
-12.529969 81.101494 50.862465 -179.869466 -1.065888 -179.899792 -3.853288 -1.617192 9.547759 -0.706204 10.821740 -26.133569 9.770340 7.966410 28.862166 -0.766494 -8.425593 -10.882542 0.000000 0.000000 0.000000 -0.123529 -2.287679 9.633800 1.244826 4.515373 -24.566744 0.982399 6.016817 32.632783 6.981121 6.824693 -12.051533 0.000000 0.000000 0.000000 1.838221 0.526341 -3.299846 -0.264930 -0.024819 -0.420923 -0.780008 -1.480881 9.339660 -0.034451 -0.001234 -0.012051 -1.283084 -0.175917 9.809913 -0.758207 -3.189324 -12.012284 0.000000 0.000000 0.000000 0.386633 0.283470 7.478959 -6.572761 -4.009578 4.109503 -65.643726 0.850542 13.817519 4.443988 -30.407401 7.939749 0.000000 0.000000 0.000000 -3.803877 1.944747 6.676334 25.762285 -0.722074 6.332507 54.067009 2.901287 20.465866 -4.265013 27.296072 -5.670517 0.000000 0.000000 0.000000 
-12.437608 81.046661 50.862526 -179.901828 -1.149522 -179.967329 -3.754922 -1.782517 9.791869 -0.764773 10.610191 -26.355996 9.860914 7.974046 28.980797 -0.792199 -8.285396 -10.915999 0.000000 0.000000 0.000000 -0.159355 -2.524792 9.762795 1.247136 4.432719 -24.682053 1.059590 5.897100 32.703704 7.016845 7.018057 -12.263306 0.000000 0.000000 0.000000 1.948175 0.392967 -3.357823 -0.260874 0.000748 -0.491846 -0.776194 -1.543845 9.410491 -0.023371 -0.039324 0.029477 -1.207902 -0.192765 9.755241 -0.712910 -2.958784 -12.069397 0.000000 0.000000 0.000000 0.464227 0.347858 7.491925 -6.629496 -3.697132 4.076381 -65.686155 1.294907 13.705639 4.442801 -30.364152 7.929488 0.000000 0.000000 0.000000 -3.744409 1.971461 6.680702 25.651686 -0.647292 6.332313 54.370891 2.325330 20.482586 -4.310275 27.140228 -5.843405 0.000000 0.000000 0.000000 
-12.331680 81.003822 50.864235 -179.981509 -1.507884 -179.952084 -3.707341 -2.174594 9.927507 -0.819369 10.399386 -26.590668 9.935909 8.001404 29.125009 -0.862218 -8.168079 -10.892680 0.000000 0.000000 0.000000 -0.188631 -2.792111 9.839168 1.271961 4.135014 -24.802584 1.163040 5.953364 32.824318 7.014935 7.164505 -12.433037 0.000000 0.000000 0.000000 2.068330 0.189424 -3.483447 -0.173107 0.043264 -0.549136 -0.867327 -1.596826 9.481637 -0.039386 -0.072846 0.000415 -1.166110 -0.207278 9.801551 -0.628081 -2.756181 -12.081825 0.000000 0.000000 0.000000 0.488573 0.221284 7.493895 -6.607195 -3.476523 4.087176 -65.674482 1.524320 13.530202 4.524755 -30.542038 7.912582 0.000000 0.000000 0.000000 -3.717439 1.957142 6.750569 25.545042 -0.505886 6.333531 54.722571 1.936630 20.658529 -4.425564 26.878094 -5.944795 0.000000 0.000000 0.000000 
-12.202827 80.982628 50.851990 179.951196 -1.576504 -179.940828 -3.649561 -2.153539 10.039307 -0.771099 10.040554 -26.711314 9.911170 8.099173 29.168965 -0.914758 -7.875555 -10.654193 0.000000 0.000000 0.000000 -0.147834 -2.699702 9.842000 1.313623 3.679972 -24.878414 1.180023 5.951074 33.034606 7.020485 7.294307 -12.550316 0.000000 0.000000 0.000000 2.199282 0.144064 -3.682804 -0.094723 0.253306 -0.553875 -0.941216 -1.554856 9.584320 -0.023030 -0.043786 0.036717 -1.277895 -0.160618 9.759708 -0.516568 -2.801530 -12.104987 0.000000 0.000000 0.000000 0.318381 0.250457 7.489444 -6.515816 -3.441526 4.075176 -65.496391 1.536283 13.241313 4.428626 -30.857012 8.142740 0.000000 0.000000 0.000000 -3.827375 1.870604 6.708704 25.531206 -0.354737 6.285631 54.987118 1.807259 20.841598 -4.425231 26.604772 -5.892382 0.000000 0.000000 0.000000 
-12.028812 80.976013 50.819771 179.993885 -2.122362 -179.959570 -3.392989 -2.293478 10.083534 -0.727002 9.580554 -26.735739 9.852560 8.147356 29.218876 -1.157462 -7.735625 -10.310597 0.000000 0.000000 0.000000 0.051913 -2.623172 9.872573 1.482939 3.049960 -24.851814 1.149215 5.984842 33.217795 7.016250 7.382626 -12.650923 0.000000 0.000000 0.000000 2.435615 0.085656 -3.944590 0.006656 0.345859 -0.477269 -1.040798 -1.571400 9.688410 -0.007146 -0.033747 0.024156 -1.447993 -0.290424 9.756568 -0.431382 -2.680196 -12.086861 0.000000 0.000000 0.000000 0.142977 0.154053 7.423389 -6.317391 -3.302867 4.107504 -65.203636 1.589512 12.829328 4.335091 -31.487561 8.446792 0.000000 0.000000 0.000000 -4.011897 1.894081 6.631318 25.680495 -0.236071 6.275734 55.072082 1.825928 20.934463 -4.491012 26.431709 -5.908155 0.000000 0.000000 0.000000 
-11.790142 80.972488 50.783615 179.939326 -2.532119 -179.896582 -3.154208 -2.148951 10.007943 -0.729263 9.118444 -26.770358 9.761819 8.013870 29.134305 -1.509227 -7.694858 -9.987012 0.000000 0.000000 0.000000 0.206809 -2.108220 9.863713 1.766717 1.747348 -24.873138 1.075224 6.042323 33.418053 6.960954 7.385797 -12.833153 0.000000 0.000000 0.000000 2.560095 0.147019 -4.230641 -0.001346 0.468202 -0.387423 -1.216342 -1.551229 9.767728 0.065521 -0.018385 0.015122 -1.557690 -0.298818 9.842420 -0.387087 -2.481571 -12.018642 0.000000 0.000000 0.000000 0.065301 0.220474 7.431104 -6.134286 -3.241701 4.226714 -64.756675 1.506904 12.323165 4.102753 -32.379714 8.847901 0.000000 0.000000 0.000000 -4.110209 1.830836 6.708161 25.820109 -0.029471 6.232721 54.944972 2.290001 20.959103 -4.439736 26.514212 -5.750515 0.000000 0.000000 0.000000 
